<?xml version="1.0" ?>
<!-- Uploaded to: SVG Repo, www.svgrepo.com, Generator: SVG Repo Mixer Tools -->
<svg fill="#000000" width="800px" height="800px" viewBox="0 0 64 64" xmlns="http://www.w3.org/2000/svg">
<g data-name="Layer 4" id="Layer_4">
<path d="M47,33H17a1,1,0,0,0-1,1c0,9.93,7.18,18,16,18s16-8.07,16-18A1,1,0,0,0,47,33ZM18,35H46a18,18,0,0,1-.67,4H18.71A18,18,0,0,1,18,35Zm8.65,13.8a6.43,6.43,0,0,1,10.61,0,12.33,12.33,0,0,1-10.61,0Zm12.35-1A8.81,8.81,0,0,0,32,44a8.81,8.81,0,0,0-7,3.81A15.56,15.56,0,0,1,19.43,41H44.57A15.56,15.56,0,0,1,39,47.81ZM32,3A29,29,0,1,0,61,32,29,29,0,0,0,32,3Zm0,56A27,27,0,1,1,59,32,27,27,0,0,1,32,59Zm4-37a1.1,1.1,0,0,1,0-.18,1.17,1.17,0,0,1,.06-.2s0-.05,0-.07a.28.28,0,0,1,.07-.09.71.71,0,0,1,.28-.28s.06-.06.09-.07l10-5a1,1,0,1,1,.9,1.78L39.24,22l8.21,4.11a1,1,0,0,1,.44,1.34A1,1,0,0,1,47,28a.93.93,0,0,1-.45-.11l-10-5h0a1.18,1.18,0,0,1-.28-.22l0-.06a.65.65,0,0,1-.1-.15s0-.05,0-.07a1.17,1.17,0,0,1-.06-.2A1.1,1.1,0,0,1,36,22ZM16.55,26.11,24.76,22l-8.21-4.11a1,1,0,1,1,.9-1.78l10,5s.06.05.09.07a.71.71,0,0,1,.28.28.28.28,0,0,1,.07.09s0,.05,0,.07a1.17,1.17,0,0,1,.06.2.82.82,0,0,1,0,.36,1.17,1.17,0,0,1-.06.2s0,.05,0,.07a.65.65,0,0,1-.1.15.21.21,0,0,0,0,.06,1.18,1.18,0,0,1-.28.22h0l-10,5A.93.93,0,0,1,17,28a1,1,0,0,1-.89-.55A1,1,0,0,1,16.55,26.11Z"/>
</g>
</svg>